# xmcd
#
# Track frame offsets: 
#        150
#        23498
#        45418
#        66625
#        93885
#        113543
#        139315
#        161598
#        184503
#        203455
#
# Disc length: 3002 seconds
#
# Revision: 1
# Processed by: cddbd v1.5.2PL0 Copyright (c) Steve Scherf et al.
# Submitted via: ExactAudioCopy v1.0b3
#
DISCID=780bb80a
DTITLE=My Huyen - Ta Tinh
DYEAR=1992
DGENRE=
TTITLE0=Ta tinh [boston]
TTITLE1=Anh cu hen [rumba]
TTITLE2=Huong tham [rumba]
TTITLE3=Chuyen hop tan [rumba]
TTITLE4=Ke co don (Trong tam mat doi) [rumba]
TTITLE5=Sao danh xa em [bolero]
TTITLE6=Nghen ngao [rumba]
TTITLE7=Chuyen ba nguoi [rumba]
TTITLE8=Thanh pho buon [slow bolero]
TTITLE9=Tam biet anh yeu [bolero]
EXTD=
EXTT0=
EXTT1=
EXTT2=
EXTT3=
EXTT4=
EXTT5=
EXTT6=
EXTT7=
EXTT8=
EXTT9=
PLAYORDER=
